<svg version="1.1" xmlns="http://www.w3.org/2000/svg" viewBox="0 0 1851.5687780971855 1208.9940759939384" width="3703.137556194371" height="2417.988151987877">
  <!-- svg-source:excalidraw -->
  
  <defs>
    <style class="style-fonts">
      @font-face {
        font-family: "Virgil";
        src: url("https://excalidraw.com/Virgil.woff2");
      }
      @font-face {
        font-family: "Cascadia";
        src: url("https://excalidraw.com/Cascadia.woff2");
      }
      @font-face {
        font-family: "Assistant";
        src: url("https://excalidraw.com/Assistant-Regular.woff2");
      }
    </style>
    
  </defs>
  <rect x="0" y="0" width="1851.5687780971855" height="1208.9940759939384" fill="#ffffff"></rect><g stroke-linecap="round" transform="translate(10 10) rotate(0 165.32157544115944 70.4494472851535)"><path d="M32 0 C96.36 0, 160.73 0, 298.64 0 M32 0 C132.27 0, 232.53 0, 298.64 0 M298.64 0 C319.98 0, 330.64 10.67, 330.64 32 M298.64 0 C319.98 0, 330.64 10.67, 330.64 32 M330.64 32 C330.64 58.57, 330.64 85.14, 330.64 108.9 M330.64 32 C330.64 56.55, 330.64 81.11, 330.64 108.9 M330.64 108.9 C330.64 130.23, 319.98 140.9, 298.64 140.9 M330.64 108.9 C330.64 130.23, 319.98 140.9, 298.64 140.9 M298.64 140.9 C222.58 140.9, 146.52 140.9, 32 140.9 M298.64 140.9 C215.13 140.9, 131.62 140.9, 32 140.9 M32 140.9 C10.67 140.9, 0 130.23, 0 108.9 M32 140.9 C10.67 140.9, 0 130.23, 0 108.9 M0 108.9 C0 78.41, 0 47.92, 0 32 M0 108.9 C0 92.58, 0 76.26, 0 32 M0 32 C0 10.67, 10.67 0, 32 0 M0 32 C0 10.67, 10.67 0, 32 0" stroke="#1e1e1e" stroke-width="2" fill="none"></path></g><g transform="translate(87.43095044115944 68.44944728515361) rotate(0 87.890625 12)"><text x="87.890625" y="19.3125" font-family="Cascadia, Segoe UI Emoji" font-size="20px" fill="#1e1e1e" text-anchor="middle" style="white-space: pre;" direction="ltr" dominant-baseline="alphabetic">Batch of blocks</text></g><g stroke-linecap="round" transform="translate(68.06808942162661 198.94158951560075) rotate(0 108.7026944941955 97.20294904558921)"><path d="M136.25 24.5 C155.74 42.21, 175.22 59.93, 190.16 73.5 M136.25 24.5 C157.25 43.59, 178.26 62.69, 190.16 73.5 M190.16 73.5 C217.41 98, 217.41 98, 190.16 122.5 M190.16 73.5 C217.41 98, 217.41 98, 190.16 122.5 M190.16 122.5 C173.29 137.33, 156.42 152.17, 136.25 169.91 M190.16 122.5 C169 141.11, 147.84 159.71, 136.25 169.91 M136.25 169.91 C109 194.41, 109 194.41, 81.75 169.91 M136.25 169.91 C109 194.41, 109 194.41, 81.75 169.91 M81.75 169.91 C69.38 159.14, 57 148.38, 27.25 122.5 M81.75 169.91 C61.19 152.02, 40.62 134.13, 27.25 122.5 M27.25 122.5 C0 98, 0 98, 27.25 73.5 M27.25 122.5 C0 98, 0 98, 27.25 73.5 M27.25 73.5 C43.86 58.56, 60.47 43.63, 81.75 24.5 M27.25 73.5 C40.49 61.59, 53.73 49.69, 81.75 24.5 M81.75 24.5 C109 0, 109 0, 136.25 24.5 M81.75 24.5 C109 0, 109 0, 136.25 24.5" stroke="#1e1e1e" stroke-width="2" fill="none"></path></g><g transform="translate(135.9038116687243 284.0430640383954) rotate(0 41.015625 12)"><text x="41.015625" y="19.3125" font-family="Cascadia, Segoe UI Emoji" font-size="20px" fill="#1e1e1e" text-anchor="middle" style="white-space: pre;" direction="ltr" dominant-baseline="alphabetic">Iterate</text></g><g stroke-linecap="round" transform="translate(467.05957664869766 207.3741981862413) rotate(0 165.32157544115944 70.4494472851535)"><path d="M32 0 C123.03 0, 214.07 0, 298.64 0 M32 0 C100.83 0, 169.66 0, 298.64 0 M298.64 0 C319.98 0, 330.64 10.67, 330.64 32 M298.64 0 C319.98 0, 330.64 10.67, 330.64 32 M330.64 32 C330.64 61.22, 330.64 90.44, 330.64 108.9 M330.64 32 C330.64 56.5, 330.64 81, 330.64 108.9 M330.64 108.9 C330.64 130.23, 319.98 140.9, 298.64 140.9 M330.64 108.9 C330.64 130.23, 319.98 140.9, 298.64 140.9 M298.64 140.9 C224.38 140.9, 150.11 140.9, 32 140.9 M298.64 140.9 C231.87 140.9, 165.1 140.9, 32 140.9 M32 140.9 C10.67 140.9, 0 130.23, 0 108.9 M32 140.9 C10.67 140.9, 0 130.23, 0 108.9 M0 108.9 C0 91.85, 0 74.8, 0 32 M0 108.9 C0 79.83, 0 50.75, 0 32 M0 32 C0 10.67, 10.67 0, 32 0 M0 32 C0 10.67, 10.67 0, 32 0" stroke="#1e1e1e" stroke-width="2" fill="none"></path></g><g transform="translate(603.0842770898571 265.8236454713949) rotate(0 29.296875 12)"><text x="29.296875" y="19.3125" font-family="Cascadia, Segoe UI Emoji" font-size="20px" fill="#1e1e1e" text-anchor="middle" style="white-space: pre;" direction="ltr" dominant-baseline="alphabetic">Block</text></g><g stroke-linecap="round"><g transform="translate(175.85929681181506 151.898894570307) rotate(0 -0.33888695920654754 23.46546307044605)"><path d="M0 0 C-0.11 7.82, -0.56 39.11, -0.68 46.93 M0 0 C-0.11 7.82, -0.56 39.11, -0.68 46.93" stroke="#1e1e1e" stroke-width="2" fill="none"></path></g><g transform="translate(175.85929681181506 151.898894570307) rotate(0 -0.33888695920654754 23.46546307044605)"><path d="M-8.38 24.76 C-5.48 33.11, -2.58 41.46, -0.68 46.93 M-8.38 24.76 C-6.17 31.13, -3.96 37.5, -0.68 46.93" stroke="#1e1e1e" stroke-width="2" fill="none"></path></g><g transform="translate(175.85929681181506 151.898894570307) rotate(0 -0.33888695920654754 23.46546307044605)"><path d="M7.67 25 C4.52 33.26, 1.38 41.52, -0.68 46.93 M7.67 25 C5.27 31.3, 2.87 37.6, -0.68 46.93" stroke="#1e1e1e" stroke-width="2" fill="none"></path></g></g><mask></mask><g stroke-linecap="round"><g transform="translate(284.76429284651476 294.16888284230913) rotate(0 90.49315974401617 -3.4357325420993448)"><path d="M0 0 C30.16 -1.15, 150.82 -5.73, 180.99 -6.87 M0 0 C30.16 -1.15, 150.82 -5.73, 180.99 -6.87" stroke="#1e1e1e" stroke-width="2" fill="none"></path></g><g transform="translate(284.76429284651476 294.16888284230913) rotate(0 90.49315974401617 -3.4357325420993448)"><path d="M157.84 2.56 C165.79 -0.68, 173.75 -3.92, 180.99 -6.87 M157.84 2.56 C163.75 0.15, 169.66 -2.26, 180.99 -6.87" stroke="#1e1e1e" stroke-width="2" fill="none"></path></g><g transform="translate(284.76429284651476 294.16888284230913) rotate(0 90.49315974401617 -3.4357325420993448)"><path d="M157.19 -14.52 C165.36 -11.89, 173.54 -9.27, 180.99 -6.87 M157.19 -14.52 C163.27 -12.57, 169.34 -10.62, 180.99 -6.87" stroke="#1e1e1e" stroke-width="2" fill="none"></path></g></g><mask></mask><g stroke-linecap="round" transform="translate(953.044980145009 176.06236944427042) rotate(0 108.7026944941955 97.20294904558921)"><path d="M136.25 24.5 C147.37 34.61, 158.5 44.72, 190.16 73.5 M136.25 24.5 C152.75 39.5, 169.25 54.5, 190.16 73.5 M190.16 73.5 C217.41 98, 217.41 98, 190.16 122.5 M190.16 73.5 C217.41 98, 217.41 98, 190.16 122.5 M190.16 122.5 C177.04 134.03, 163.93 145.56, 136.25 169.91 M190.16 122.5 C169.97 140.25, 149.79 158, 136.25 169.91 M136.25 169.91 C109 194.41, 109 194.41, 81.75 169.91 M136.25 169.91 C109 194.41, 109 194.41, 81.75 169.91 M81.75 169.91 C70.04 159.72, 58.32 149.53, 27.25 122.5 M81.75 169.91 C61.71 152.47, 41.66 135.04, 27.25 122.5 M27.25 122.5 C0 98, 0 98, 27.25 73.5 M27.25 122.5 C0 98, 0 98, 27.25 73.5 M27.25 73.5 C47.42 55.37, 67.58 37.24, 81.75 24.5 M27.25 73.5 C47.69 55.13, 68.12 36.75, 81.75 24.5 M81.75 24.5 C109 0, 109 0, 136.25 24.5 M81.75 24.5 C109 0, 109 0, 136.25 24.5" stroke="#1e1e1e" stroke-width="2" fill="none"></path></g><g transform="translate(1026.7400773921067 249.16384396706508) rotate(0 35.15625 24)"><text x="35.15625" y="19.3125" font-family="Cascadia, Segoe UI Emoji" font-size="20px" fill="#1e1e1e" text-anchor="middle" style="white-space: pre;" direction="ltr" dominant-baseline="alphabetic">order</text><text x="35.15625" y="43.3125" font-family="Cascadia, Segoe UI Emoji" font-size="20px" fill="#1e1e1e" text-anchor="middle" style="white-space: pre;" direction="ltr" dominant-baseline="alphabetic">events</text></g><g stroke-linecap="round"><g transform="translate(810.6719204848322 277.8106927624758) rotate(0 72.26982429979384 -0.5375449467932185)"><path d="M0 0 C24.09 -0.18, 120.45 -0.9, 144.54 -1.08 M0 0 C24.09 -0.18, 120.45 -0.9, 144.54 -1.08" stroke="#1e1e1e" stroke-width="2" fill="none"></path></g><g transform="translate(810.6719204848322 277.8106927624758) rotate(0 72.26982429979384 -0.5375449467932185)"><path d="M121.11 7.65 C126.32 5.71, 131.53 3.77, 144.54 -1.08 M121.11 7.65 C126.8 5.53, 132.49 3.41, 144.54 -1.08" stroke="#1e1e1e" stroke-width="2" fill="none"></path></g><g transform="translate(810.6719204848322 277.8106927624758) rotate(0 72.26982429979384 -0.5375449467932185)"><path d="M120.98 -9.45 C126.22 -7.59, 131.46 -5.73, 144.54 -1.08 M120.98 -9.45 C126.71 -7.42, 132.43 -5.38, 144.54 -1.08" stroke="#1e1e1e" stroke-width="2" fill="none"></path></g></g><mask></mask><g stroke-linecap="round"><g transform="translate(1170.7337409390236 274.3534202817202) rotate(0 42.87015882992699 -0.41229016059662627)"><path d="M0 0 C14.29 -0.14, 71.45 -0.69, 85.74 -0.82 M0 0 C14.29 -0.14, 71.45 -0.69, 85.74 -0.82" stroke="#1e1e1e" stroke-width="2" fill="none"></path></g><g transform="translate(1170.7337409390236 274.3534202817202) rotate(0 42.87015882992699 -0.41229016059662627)"><path d="M62.33 7.95 C70.49 4.89, 78.65 1.83, 85.74 -0.82 M62.33 7.95 C67.54 6, 72.74 4.05, 85.74 -0.82" stroke="#1e1e1e" stroke-width="2" fill="none"></path></g><g transform="translate(1170.7337409390236 274.3534202817202) rotate(0 42.87015882992699 -0.41229016059662627)"><path d="M62.17 -9.15 C70.38 -6.25, 78.6 -3.35, 85.74 -0.82 M62.17 -9.15 C67.41 -7.3, 72.65 -5.45, 85.74 -0.82" stroke="#1e1e1e" stroke-width="2" fill="none"></path></g></g><mask></mask><g stroke-linecap="round" transform="translate(1257.4634057232988 176.47146655644224) rotate(0 108.7026944941955 97.20294904558921)"><path d="M136.25 24.5 C149.65 36.68, 163.05 48.86, 190.16 73.5 M136.25 24.5 C149.65 36.68, 163.04 48.86, 190.16 73.5 M190.16 73.5 C217.41 98, 217.41 98, 190.16 122.5 M190.16 73.5 C217.41 98, 217.41 98, 190.16 122.5 M190.16 122.5 C177.19 133.9, 164.22 145.31, 136.25 169.91 M190.16 122.5 C171.44 138.96, 152.73 155.41, 136.25 169.91 M136.25 169.91 C109 194.41, 109 194.41, 81.75 169.91 M136.25 169.91 C109 194.41, 109 194.41, 81.75 169.91 M81.75 169.91 C60.04 151.02, 38.33 132.14, 27.25 122.5 M81.75 169.91 C69.67 159.39, 57.58 148.88, 27.25 122.5 M27.25 122.5 C0 98, 0 98, 27.25 73.5 M27.25 122.5 C0 98, 0 98, 27.25 73.5 M27.25 73.5 C43.77 58.65, 60.28 43.8, 81.75 24.5 M27.25 73.5 C46.68 56.04, 66.1 38.57, 81.75 24.5 M81.75 24.5 C109 0, 109 0, 136.25 24.5 M81.75 24.5 C109 0, 109 0, 136.25 24.5" stroke="#1e1e1e" stroke-width="2" fill="none"></path></g><g transform="translate(1325.2991279703965 249.5729410792369) rotate(0 41.015625 24)"><text x="41.015625" y="19.3125" font-family="Cascadia, Segoe UI Emoji" font-size="20px" fill="#1e1e1e" text-anchor="middle" style="white-space: pre;" direction="ltr" dominant-baseline="alphabetic">process</text><text x="41.015625" y="43.3125" font-family="Cascadia, Segoe UI Emoji" font-size="20px" fill="#1e1e1e" text-anchor="middle" style="white-space: pre;" direction="ltr" dominant-baseline="alphabetic">events</text></g><g stroke-linecap="round" transform="translate(1508.4085551362775 520.2876271535151) rotate(0 165.32157544115944 70.4494472851535)"><path d="M32 0 C111.41 0, 190.82 0, 298.64 0 M32 0 C102.9 0, 173.79 0, 298.64 0 M298.64 0 C319.98 0, 330.64 10.67, 330.64 32 M298.64 0 C319.98 0, 330.64 10.67, 330.64 32 M330.64 32 C330.64 54.78, 330.64 77.56, 330.64 108.9 M330.64 32 C330.64 57.48, 330.64 82.96, 330.64 108.9 M330.64 108.9 C330.64 130.23, 319.98 140.9, 298.64 140.9 M330.64 108.9 C330.64 130.23, 319.98 140.9, 298.64 140.9 M298.64 140.9 C212.4 140.9, 126.15 140.9, 32 140.9 M298.64 140.9 C193.81 140.9, 88.97 140.9, 32 140.9 M32 140.9 C10.67 140.9, 0 130.23, 0 108.9 M32 140.9 C10.67 140.9, 0 130.23, 0 108.9 M0 108.9 C0 80.01, 0 51.12, 0 32 M0 108.9 C0 91.22, 0 73.54, 0 32 M0 32 C0 10.67, 10.67 0, 32 0 M0 32 C0 10.67, 10.67 0, 32 0" stroke="#1e1e1e" stroke-width="2" fill="none"></path></g><g transform="translate(1603.417630577437 578.7370744386687) rotate(0 70.3125 12)"><text x="70.3125" y="19.3125" font-family="Cascadia, Segoe UI Emoji" font-size="20px" fill="#1e1e1e" text-anchor="middle" style="white-space: pre;" direction="ltr" dominant-baseline="alphabetic">Action Queue</text></g><g stroke-linecap="round"><g transform="translate(1667.1886541044341 368.16297001108205) rotate(0 1.6314327401037758 72.18160899494671)"><path d="M0 0 C0.54 24.06, 2.72 120.3, 3.26 144.36 M0 0 C0.54 24.06, 2.72 120.3, 3.26 144.36" stroke="#1e1e1e" stroke-width="2" fill="none"></path></g><g transform="translate(1667.1886541044341 368.16297001108205) rotate(0 1.6314327401037758 72.18160899494671)"><path d="M-5.82 121.07 C-2.27 130.17, 1.27 139.26, 3.26 144.36 M-5.82 121.07 C-3.51 126.98, -1.21 132.89, 3.26 144.36" stroke="#1e1e1e" stroke-width="2" fill="none"></path></g><g transform="translate(1667.1886541044341 368.16297001108205) rotate(0 1.6314327401037758 72.18160899494671)"><path d="M11.28 120.68 C8.15 129.93, 5.02 139.18, 3.26 144.36 M11.28 120.68 C9.25 126.69, 7.21 132.7, 3.26 144.36" stroke="#1e1e1e" stroke-width="2" fill="none"></path></g></g><mask></mask><g stroke-linecap="round" transform="translate(1555.593017740393 166.88675602903822) rotate(0 108.7026944941955 97.20294904558921)"><path d="M136.25 24.5 C154.87 41.43, 173.5 58.36, 190.16 73.5 M136.25 24.5 C153.46 40.15, 170.67 55.79, 190.16 73.5 M190.16 73.5 C217.41 98, 217.41 98, 190.16 122.5 M190.16 73.5 C217.41 98, 217.41 98, 190.16 122.5 M190.16 122.5 C174.78 136.02, 159.4 149.55, 136.25 169.91 M190.16 122.5 C173.27 137.35, 156.39 152.2, 136.25 169.91 M136.25 169.91 C109 194.41, 109 194.41, 81.75 169.91 M136.25 169.91 C109 194.41, 109 194.41, 81.75 169.91 M81.75 169.91 C60.14 151.11, 38.53 132.31, 27.25 122.5 M81.75 169.91 C70.19 159.85, 58.62 149.79, 27.25 122.5 M27.25 122.5 C0 98, 0 98, 27.25 73.5 M27.25 122.5 C0 98, 0 98, 27.25 73.5 M27.25 73.5 C41.52 60.67, 55.78 47.85, 81.75 24.5 M27.25 73.5 C45.08 57.47, 62.91 41.44, 81.75 24.5 M81.75 24.5 C109 0, 109 0, 136.25 24.5 M81.75 24.5 C109 0, 109 0, 136.25 24.5" stroke="#1e1e1e" stroke-width="2" fill="none"></path></g><g transform="translate(1617.5693649874906 239.98823055183288) rotate(0 46.875 24)"><text x="46.875" y="19.3125" font-family="Cascadia, Segoe UI Emoji" font-size="20px" fill="#1e1e1e" text-anchor="middle" style="white-space: pre;" direction="ltr" dominant-baseline="alphabetic">submit</text><text x="46.875" y="43.3125" font-family="Cascadia, Segoe UI Emoji" font-size="20px" fill="#1e1e1e" text-anchor="middle" style="white-space: pre;" direction="ltr" dominant-baseline="alphabetic">to queue</text></g><g stroke-linecap="round"><g transform="translate(1476.414615359572 267.73376481106106) rotate(0 40.44338958454193 -0.38745901790991866)"><path d="M0 0 C13.48 -0.13, 67.41 -0.65, 80.89 -0.77 M0 0 C13.48 -0.13, 67.41 -0.65, 80.89 -0.77" stroke="#1e1e1e" stroke-width="2" fill="none"></path></g><g transform="translate(1476.414615359572 267.73376481106106) rotate(0 40.44338958454193 -0.38745901790991866)"><path d="M57.48 8 C64.8 5.25, 72.13 2.51, 80.89 -0.77 M57.48 8 C66.67 4.56, 75.85 1.11, 80.89 -0.77" stroke="#1e1e1e" stroke-width="2" fill="none"></path></g><g transform="translate(1476.414615359572 267.73376481106106) rotate(0 40.44338958454193 -0.38745901790991866)"><path d="M57.31 -9.1 C64.69 -6.5, 72.07 -3.89, 80.89 -0.77 M57.31 -9.1 C66.57 -5.83, 75.82 -2.57, 80.89 -0.77" stroke="#1e1e1e" stroke-width="2" fill="none"></path></g></g><mask></mask><g stroke-linecap="round" transform="translate(73.03890444500189 514.3587018013318) rotate(0 108.7026944941955 97.20294904558921)"><path d="M136.25 24.5 C156.73 43.12, 177.22 61.74, 190.16 73.5 M136.25 24.5 C153.42 40.11, 170.6 55.72, 190.16 73.5 M190.16 73.5 C217.41 98, 217.41 98, 190.16 122.5 M190.16 73.5 C217.41 98, 217.41 98, 190.16 122.5 M190.16 122.5 C175.14 135.7, 160.13 148.91, 136.25 169.91 M190.16 122.5 C176.66 134.37, 163.16 146.24, 136.25 169.91 M136.25 169.91 C109 194.41, 109 194.41, 81.75 169.91 M136.25 169.91 C109 194.41, 109 194.41, 81.75 169.91 M81.75 169.91 C69.67 159.4, 57.58 148.88, 27.25 122.5 M81.75 169.91 C61.14 151.98, 40.54 134.06, 27.25 122.5 M27.25 122.5 C0 98, 0 98, 27.25 73.5 M27.25 122.5 C0 98, 0 98, 27.25 73.5 M27.25 73.5 C41.06 61.08, 54.87 48.66, 81.75 24.5 M27.25 73.5 C41.96 60.28, 56.67 47.05, 81.75 24.5 M81.75 24.5 C109 0, 109 0, 136.25 24.5 M81.75 24.5 C109 0, 109 0, 136.25 24.5" stroke="#1e1e1e" stroke-width="2" fill="none"></path></g><g transform="translate(135.01525169209958 575.4601763241265) rotate(0 46.875 36)"><text x="46.875" y="19.3125" font-family="Cascadia, Segoe UI Emoji" font-size="20px" fill="#1e1e1e" text-anchor="middle" style="white-space: pre;" direction="ltr" dominant-baseline="alphabetic">wait for</text><text x="46.875" y="43.3125" font-family="Cascadia, Segoe UI Emoji" font-size="20px" fill="#1e1e1e" text-anchor="middle" style="white-space: pre;" direction="ltr" dominant-baseline="alphabetic">action </text><text x="46.875" y="67.3125" font-family="Cascadia, Segoe UI Emoji" font-size="20px" fill="#1e1e1e" text-anchor="middle" style="white-space: pre;" direction="ltr" dominant-baseline="alphabetic">queue</text></g><g stroke-linecap="round"><g transform="translate(180.06351102641088 391.7445962109384) rotate(0 1.5189607480065206 61.24429290959847)"><path d="M0 0 C0.51 20.41, 2.53 102.07, 3.04 122.49 M0 0 C0.51 20.41, 2.53 102.07, 3.04 122.49" stroke="#1e1e1e" stroke-width="2" fill="none"></path></g><g transform="translate(180.06351102641088 391.7445962109384) rotate(0 1.5189607480065206 61.24429290959847)"><path d="M-6.09 99.22 C-2.64 108, 0.8 116.79, 3.04 122.49 M-6.09 99.22 C-2.87 107.42, 0.35 115.62, 3.04 122.49" stroke="#1e1e1e" stroke-width="2" fill="none"></path></g><g transform="translate(180.06351102641088 391.7445962109384) rotate(0 1.5189607480065206 61.24429290959847)"><path d="M11 98.79 C8 107.74, 4.99 116.69, 3.04 122.49 M11 98.79 C8.2 107.15, 5.39 115.5, 3.04 122.49" stroke="#1e1e1e" stroke-width="2" fill="none"></path></g></g><mask></mask><g stroke-linecap="round"><g transform="translate(292.04777322532686 603.8330608038673) rotate(0 605.1927547466573 -1.9526344042019446)"><path d="M0 0 C201.73 -0.65, 1008.65 -3.25, 1210.39 -3.91 M0 0 C201.73 -0.65, 1008.65 -3.25, 1210.39 -3.91" stroke="#1e1e1e" stroke-width="2" fill="none"></path></g><g transform="translate(292.04777322532686 603.8330608038673) rotate(0 605.1927547466573 -1.9526344042019446)"><path d="M1186.92 4.72 C1193.64 2.25, 1200.36 -0.22, 1210.39 -3.91 M1186.92 4.72 C1192.85 2.54, 1198.78 0.36, 1210.39 -3.91" stroke="#1e1e1e" stroke-width="2" fill="none"></path></g><g transform="translate(292.04777322532686 603.8330608038673) rotate(0 605.1927547466573 -1.9526344042019446)"><path d="M1186.87 -12.38 C1193.6 -9.95, 1200.34 -7.52, 1210.39 -3.91 M1186.87 -12.38 C1192.81 -10.24, 1198.75 -8.1, 1210.39 -3.91" stroke="#1e1e1e" stroke-width="2" fill="none"></path></g></g><mask></mask><g stroke-linecap="round" transform="translate(1510.9256272148666 1058.0951814236314) rotate(0 165.32157544115944 70.4494472851535)"><path d="M32 0 C96.86 0, 161.72 0, 298.64 0 M32 0 C131.82 0, 231.65 0, 298.64 0 M298.64 0 C319.98 0, 330.64 10.67, 330.64 32 M298.64 0 C319.98 0, 330.64 10.67, 330.64 32 M330.64 32 C330.64 48.53, 330.64 65.06, 330.64 108.9 M330.64 32 C330.64 60.28, 330.64 88.56, 330.64 108.9 M330.64 108.9 C330.64 130.23, 319.98 140.9, 298.64 140.9 M330.64 108.9 C330.64 130.23, 319.98 140.9, 298.64 140.9 M298.64 140.9 C199.97 140.9, 101.31 140.9, 32 140.9 M298.64 140.9 C198.65 140.9, 98.66 140.9, 32 140.9 M32 140.9 C10.67 140.9, 0 130.23, 0 108.9 M32 140.9 C10.67 140.9, 0 130.23, 0 108.9 M0 108.9 C0 83.14, 0 57.37, 0 32 M0 108.9 C0 85.07, 0 61.24, 0 32 M0 32 C0 10.67, 10.67 0, 32 0 M0 32 C0 10.67, 10.67 0, 32 0" stroke="#1e1e1e" stroke-width="2" fill="none"></path></g><g transform="translate(1664.528452656026 1116.5446287087848) rotate(0 11.71875 12)"><text x="11.71875" y="19.3125" font-family="Cascadia, Segoe UI Emoji" font-size="20px" fill="#1e1e1e" text-anchor="middle" style="white-space: pre;" direction="ltr" dominant-baseline="alphabetic">DB</text></g><g stroke-linecap="round" transform="translate(1563.1660873152625 755.78693014843) rotate(0 108.7026944941955 97.20294904558921)"><path d="M136.25 24.5 C154.96 41.5, 173.66 58.51, 190.16 73.5 M136.25 24.5 C155.86 42.33, 175.47 60.15, 190.16 73.5 M190.16 73.5 C217.41 98, 217.41 98, 190.16 122.5 M190.16 73.5 C217.41 98, 217.41 98, 190.16 122.5 M190.16 122.5 C171.46 138.94, 152.77 155.38, 136.25 169.91 M190.16 122.5 C170.28 139.98, 150.4 157.47, 136.25 169.91 M136.25 169.91 C109 194.41, 109 194.41, 81.75 169.91 M136.25 169.91 C109 194.41, 109 194.41, 81.75 169.91 M81.75 169.91 C63.83 154.32, 45.9 138.73, 27.25 122.5 M81.75 169.91 C65.56 155.82, 49.36 141.74, 27.25 122.5 M27.25 122.5 C0 98, 0 98, 27.25 73.5 M27.25 122.5 C0 98, 0 98, 27.25 73.5 M27.25 73.5 C42.78 59.54, 58.3 45.58, 81.75 24.5 M27.25 73.5 C38.53 63.36, 49.81 53.22, 81.75 24.5 M81.75 24.5 C109 0, 109 0, 136.25 24.5 M81.75 24.5 C109 0, 109 0, 136.25 24.5" stroke="#1e1e1e" stroke-width="2" fill="none"></path></g><g transform="translate(1625.1424345623602 828.8884046712246) rotate(0 46.875 24)"><text x="46.875" y="19.3125" font-family="Cascadia, Segoe UI Emoji" font-size="20px" fill="#1e1e1e" text-anchor="middle" style="white-space: pre;" direction="ltr" dominant-baseline="alphabetic">write to</text><text x="46.875" y="43.3125" font-family="Cascadia, Segoe UI Emoji" font-size="20px" fill="#1e1e1e" text-anchor="middle" style="white-space: pre;" direction="ltr" dominant-baseline="alphabetic">db</text></g><g stroke-linecap="round"><g transform="translate(1672.7973703736254 666.322450976538) rotate(0 0.5607356835230348 46.56477443544759)"><path d="M0 0 C0.19 15.52, 0.93 77.61, 1.12 93.13 M0 0 C0.19 15.52, 0.93 77.61, 1.12 93.13" stroke="#1e1e1e" stroke-width="2" fill="none"></path></g><g transform="translate(1672.7973703736254 666.322450976538) rotate(0 0.5607356835230348 46.56477443544759)"><path d="M-7.71 69.74 C-5.37 75.95, -3.02 82.15, 1.12 93.13 M-7.71 69.74 C-5.49 75.63, -3.26 81.51, 1.12 93.13" stroke="#1e1e1e" stroke-width="2" fill="none"></path></g><g transform="translate(1672.7973703736254 666.322450976538) rotate(0 0.5607356835230348 46.56477443544759)"><path d="M9.39 69.54 C7.2 75.8, 5 82.06, 1.12 93.13 M9.39 69.54 C7.31 75.47, 5.23 81.41, 1.12 93.13" stroke="#1e1e1e" stroke-width="2" fill="none"></path></g></g><mask></mask><g stroke-linecap="round"><g transform="translate(1673.7598271438515 944.2939148666874) rotate(0 0.16319919147315431 54.43599697803597)"><path d="M0 0 C0.05 18.15, 0.27 90.73, 0.33 108.87 M0 0 C0.05 18.15, 0.27 90.73, 0.33 108.87" stroke="#1e1e1e" stroke-width="2" fill="none"></path></g><g transform="translate(1673.7598271438515 944.2939148666874) rotate(0 0.16319919147315431 54.43599697803597)"><path d="M-8.29 85.41 C-6.22 91.05, -4.15 96.7, 0.33 108.87 M-8.29 85.41 C-5.3 93.55, -2.31 101.7, 0.33 108.87" stroke="#1e1e1e" stroke-width="2" fill="none"></path></g><g transform="translate(1673.7598271438515 944.2939148666874) rotate(0 0.16319919147315431 54.43599697803597)"><path d="M8.81 85.35 C6.77 91.01, 4.73 96.67, 0.33 108.87 M8.81 85.35 C5.86 93.52, 2.92 101.68, 0.33 108.87" stroke="#1e1e1e" stroke-width="2" fill="none"></path></g></g><mask></mask></svg>